# xmcd
#
# Track frame offsets:
#       150
#       20500
#       37000
#       54967
#       72227
#       90302
#       119095
#       137762
#       154707
#       166920
#       182272
#       197847
#       219757
#       234767
#       256440
#
# Disc length: 3575 seconds
#
# Revision: 0
# Processed by: cddbd v1.4PL0 Copyright (c) Steve Scherf et al.
# Submitted via: CD-DA_X-Tractor v0.21
#
DISCID=c00df50f
DTITLE=Hideaway - Unable to label
DYEAR=1900
DGENRE=
TTITLE0=Roadhouse
TTITLE1=Lonesome Valley
TTITLE2=We're havin' a party
TTITLE3=The question
TTITLE4=Good Lovin'
TTITLE5=I shall not be moved
TTITLE6=Now you're gone
TTITLE7=Friends
TTITLE8=The money is gone
TTITLE9=I'm getting old
TTITLE10=Someday baby
TTITLE11=Standing in the shadow
TTITLE12=Don't put the blame on me
TTITLE13=Blind love
TTITLE14=Swingin' the pighouse
EXTD=
EXTT0=
EXTT1=
EXTT2=
EXTT3=
EXTT4=
EXTT5=
EXTT6=
EXTT7=
EXTT8=
EXTT9=
EXTT10=
EXTT11=
EXTT12=
EXTT13=
EXTT14=
PLAYORDER=
